<svg width="80" height="80" viewBox="0 0 80 80" fill="none" xmlns="http://www.w3.org/2000/svg">
<g clip-path="url(#clip0)">
<path d="M44 80.3125C40.1563 80.3125 37.0313 77.1875 37.0313 73.3437V66.7656C35.8125 66.9062 34.5781 66.9844 33.3438 67C33.1094 67 32.8906 67 32.6875 66.9844C26.9375 66.8594 21.2969 65.2656 16.3438 62.3594C11.3906 59.4531 7.23439 55.2969 4.34377 50.3594C4.29689 50.3125 4.26564 50.25 4.23439 50.1875C-1.76561 39.8125 -1.76561 26.9219 4.23439 16.5312C4.26564 16.4687 4.31252 16.4219 4.34377 16.3594C7.25002 11.4062 11.4063 7.26562 16.3594 4.35937C21.3125 1.45312 26.9688 -0.140625 32.7031 -0.265625H32.7656C32.9063 -0.28125 33.0938 -0.28125 33.3281 -0.28125H33.4063C33.6406 -0.28125 33.8438 -0.265625 34.0156 -0.265625C39.7656 -0.140625 45.4063 1.45312 50.3594 4.35937C55.3125 7.26562 59.4688 11.4219 62.3594 16.375C62.4063 16.4219 62.4375 16.4844 62.4688 16.5469C63.3125 17.9844 64.0313 19.5 64.6407 21.0625H68C71.8438 21.0625 74.9688 24.2031 74.9844 28.0469V73.375C74.9844 75.4062 76.6406 77.0625 78.6719 77.0625C79.5781 77.0625 80.3125 77.7969 80.3125 78.7031C80.3125 79.6094 79.5781 80.3437 78.6719 80.3437H44V80.3125ZM39.2344 24.3125C39.9375 25.4062 40.3125 26.7031 40.3125 28V73.3281C40.3125 75.3594 41.9688 77.0156 44 77.0156H72.7657C72.0625 75.9219 71.6875 74.625 71.6875 73.3281V28C71.6875 25.9687 70.0313 24.3125 68 24.3125H39.2344ZM21.7344 50.9844C24.1094 57.8437 27.7969 62.4687 31.6875 63.4844V50.9844H21.7344ZM34.9844 63.4687C35.7031 63.2812 36.3906 62.9844 37.0313 62.5937V50.9844H34.9844V63.4687ZM8.67189 50.9844C12.5156 56.3281 18 60.2969 24.2656 62.2812C21.5 59 19.4375 55.125 18.2656 50.9844H8.67189ZM37.0313 47.6875V33.9062C36.4063 34.3125 35.7031 34.6094 34.9844 34.7812V47.6875H37.0313ZM31.6875 47.6875V34.9844H19.0313C19.125 39.2656 19.7031 43.5469 20.7656 47.6875H31.6875ZM17.375 47.6875C16.375 43.5312 15.8281 39.25 15.7344 34.9844H3.04689C3.28127 39.4062 4.51564 43.7969 6.60939 47.6875H17.375ZM33.3281 24.3125C31.2969 24.3125 29.6406 25.9687 29.6406 28C29.6406 30.0312 31.2969 31.6875 33.3281 31.6875C35.3594 31.6875 37.0156 30.0312 37.0156 28C37.0156 25.9687 35.3594 24.3125 33.3281 24.3125ZM27.4375 31.6875C26.7344 30.5937 26.3594 29.2969 26.3594 28C26.3594 24.7812 28.5938 21.9687 31.6875 21.2187V18.9844H20.7656C19.7031 23.1406 19.125 27.4062 19.0313 31.6875H27.4375ZM15.7344 31.6875C15.8281 27.4062 16.375 23.1406 17.375 18.9844H6.60939C4.51564 22.8906 3.28127 27.2656 3.04689 31.6875H15.7344ZM61.0469 21.0312C60.7344 20.3437 60.4063 19.6562 60.0469 18.9844H49.3125C49.4688 19.6562 49.625 20.3437 49.7656 21.0312H61.0469ZM46.4063 21.0312C46.2656 20.3437 46.0938 19.6562 45.9219 18.9844H34.9844V21.0312H46.4063ZM18.2656 15.6875C19.4375 11.5625 21.5 7.6875 24.2656 4.40625C18 6.39062 12.5156 10.3594 8.67189 15.6875H18.2656ZM58 15.6875C54.1563 10.3437 48.6719 6.375 42.4063 4.39062C45.1719 7.67187 47.2344 11.5625 48.4063 15.6875H58ZM44.9375 15.6875C42.5625 8.82812 38.875 4.20312 34.9844 3.1875V15.6875H44.9375ZM31.6875 15.6875V3.1875C27.7813 4.20312 24.1094 8.82812 21.7344 15.6875H31.6875Z" fill="#242D3D"/>
<path d="M78.6719 77.3438C76.4688 77.3438 74.6719 75.5469 74.6719 73.3437V28C74.6719 24.3125 71.6875 21.3438 68 21.3281H64.4219C63.8125 19.7187 63.0625 18.1562 62.1875 16.6562C62.1563 16.6094 62.125 16.5625 62.0938 16.5156C56.2344 6.51562 45.5781 0.265625 33.9844 0.015625C33.7969 0.015625 33.5938 0 33.3906 0C33.3594 0 33.3438 0 33.3125 0C33.0938 0 32.9063 3.49246e-09 32.7813 0.015625C32.7656 0.015625 32.75 0.015625 32.7188 0.015625H32.7031C21.0938 0.265625 10.4531 6.51562 4.57814 16.5156C4.54689 16.5625 4.50002 16.6094 4.48439 16.6719C-1.48436 26.9844 -1.48436 39.7031 4.48439 50.0156C4.51564 50.0625 4.54689 50.1094 4.57814 50.1562C10.4375 60.1719 21.0938 66.4219 32.6875 66.6563C32.8906 66.6719 33.1094 66.6719 33.3281 66.6719C34.6719 66.6563 36 66.5781 37.3281 66.4062V73.3437C37.3281 77.0312 40.3125 80 44 80.0156H78.6719C79.4063 80.0156 80 79.4219 80 78.6875C80 77.9531 79.4063 77.3438 78.6719 77.3438ZM61.5313 21.3438H49.5156C49.3438 20.4375 49.1406 19.5469 48.9219 18.6719H60.25C60.7188 19.5312 61.1406 20.4219 61.5313 21.3438ZM58.6094 16H48.1719C46.9219 11.4531 44.625 7.26562 41.4688 3.78125C48.4375 5.71875 54.5 10.0469 58.6094 16ZM34.6719 2.79687C38.9219 3.65625 42.8906 8.54688 45.375 16H34.6719V2.79687V2.79687ZM34.6719 18.6719H46.1563C46.3906 19.5469 46.5938 20.4375 46.7813 21.3438H38.6563H34.6563V18.6719H34.6719ZM32 2.79687V16H21.2969C23.7813 8.5625 27.75 3.65625 32 2.79687ZM28.0313 32H18.7031C18.7813 27.5 19.375 23.0156 20.5156 18.6719H32V21.4687C28.8906 22.1094 26.6719 24.8281 26.6719 28C26.6719 29.4531 27.1563 30.8594 28.0313 32ZM25.2031 3.79687C22.0469 7.28125 19.75 11.4688 18.5 16H8.06252C12.1719 10.0469 18.2344 5.73437 25.2031 3.79687ZM6.42189 18.6719H17.7813C16.7031 23.0312 16.125 27.5156 16.0469 32H2.71877C2.90627 27.3281 4.18752 22.7812 6.42189 18.6719ZM2.71877 34.6719H16.0469C16.125 39.1719 16.7031 43.6406 17.7813 48H6.42189C4.18752 43.9063 2.90627 39.3437 2.71877 34.6719ZM8.06252 50.6719H18.5C19.75 55.2187 22.0469 59.4063 25.2031 62.8906C18.2344 60.9531 12.1719 56.625 8.06252 50.6719ZM32 63.875C27.75 63.0156 23.7813 58.125 21.2969 50.6719H32V63.875ZM32 48H20.5156C19.3906 43.6406 18.7813 39.1719 18.7031 34.6719H32V48ZM37.3438 62.7656C36.5313 63.2813 35.625 63.6563 34.6719 63.8594V50.6719H37.3438V62.7656ZM37.3438 48H34.6719V34.5312C35.6406 34.3281 36.5469 33.9063 37.3438 33.2969V48ZM33.3438 32C31.1406 32 29.3438 30.2031 29.3438 28C29.3438 25.7969 31.1406 24 33.3438 24C35.5469 24 37.3438 25.7969 37.3438 28C37.3438 30.2187 35.5469 32 33.3438 32ZM44 77.3438C41.7969 77.3438 40 75.5469 40 73.3437V28C40 26.5469 39.5156 25.1406 38.625 24H68C70.2032 24 72 25.7969 72 28V73.3281C72 74.7812 72.4844 76.1875 73.375 77.3281L44 77.3438Z" fill="#242D3D"/>
<path d="M56 54.9844C55.5625 54.9844 55.1406 54.8125 54.8281 54.5L51.9844 51.6562L49.1406 54.5C48.8281 54.8125 48.4219 54.9844 47.9688 54.9844C47.75 54.9844 47.5469 54.9375 47.3438 54.8594C46.7188 54.6094 46.3281 54 46.3281 53.3437V42.0937C46.125 41.9062 45.9219 41.7031 45.7344 41.5C45.5156 41.5937 45.2813 41.6562 45.0469 41.6562C44.2969 41.6562 43.6406 41.1562 43.4531 40.4375C43.2656 39.7656 43.5313 39.0469 44.1094 38.6562C44 38.3281 43.9063 37.9844 43.8438 37.6406C43 37.5625 42.3438 36.8594 42.3438 36C42.3438 35.1406 43 34.4375 43.8438 34.3594C43.9063 34.0156 44 33.6719 44.1094 33.3437C43.4219 32.8594 43.2031 31.9219 43.625 31.1719C43.9219 30.6719 44.4688 30.3437 45.0469 30.3437C45.2813 30.3437 45.5156 30.3906 45.7344 30.5C45.9688 30.2344 46.2188 29.9844 46.4688 29.7656C46.25 29.2812 46.2656 28.7187 46.5313 28.25C46.8281 27.75 47.375 27.4219 47.9531 27.4219C48.5 27.4219 49 27.6875 49.2969 28.125C49.625 28.0156 49.9688 27.9219 50.3125 27.8594C50.3906 27.0156 51.0938 26.3594 51.9531 26.3594C52.8125 26.3594 53.5156 27.0156 53.5938 27.8594C53.9375 27.9219 54.2656 28.0156 54.6094 28.125C54.9219 27.6875 55.4219 27.4219 55.9531 27.4219C56.2344 27.4219 56.5313 27.5 56.7813 27.6406C57.5313 28.0625 57.8125 29 57.4531 29.7656C57.7188 30 57.9688 30.25 58.1875 30.5C58.4063 30.4062 58.6406 30.3437 58.875 30.3437C59.4688 30.3437 60.0156 30.6562 60.2969 31.1719C60.7344 31.9219 60.5 32.8594 59.8125 33.3437C59.9219 33.6719 60.0156 34.0156 60.0781 34.3594C60.9219 34.4375 61.5781 35.1406 61.5781 36C61.5781 36.8594 60.9219 37.5625 60.0781 37.6406C60.0156 37.9844 59.9219 38.3281 59.8125 38.6562C60.5 39.1406 60.7188 40.0781 60.2969 40.8281C60 41.3281 59.4531 41.6562 58.875 41.6562C58.6406 41.6562 58.3906 41.6094 58.1875 41.5C58 41.7031 57.8125 41.9062 57.5938 42.0937V53.3437C57.5938 54.0156 57.1875 54.6094 56.5781 54.8594C56.4375 54.9375 56.2188 54.9844 56 54.9844ZM52 47.6875C52.4375 47.6875 52.8594 47.8594 53.1563 48.1719L54.3438 49.3594V43.9687C53.5781 44.2031 52.7969 44.3125 51.9844 44.3125C51.1875 44.3125 50.3906 44.2031 49.625 43.9687V49.3594L50.8125 48.1719C51.1563 47.8594 51.5625 47.6875 52 47.6875ZM52 30.9844C49.2344 30.9844 46.9844 33.2344 46.9844 36C46.9844 38.7656 49.2344 41.0156 52 41.0156C54.7656 41.0156 57.0156 38.7656 57.0156 36C57.0313 33.2344 54.7656 30.9844 52 30.9844Z" fill="#E94F4E"/>
<path d="M45.8438 41.1094C46.0938 41.4062 46.375 41.7031 46.6719 41.9531V53.3437C46.6719 53.8906 47 54.375 47.5 54.5781C48 54.7812 48.5781 54.6719 48.9531 54.2812L52.0156 51.2187L55.0781 54.2812C55.4531 54.6562 56.0313 54.7812 56.5313 54.5781C57.0313 54.375 57.3594 53.8906 57.3594 53.3437V41.9531C57.6563 41.6875 57.9375 41.4062 58.1875 41.1094L58.2813 41.1719C58.9219 41.5469 59.7344 41.3281 60.1094 40.6875C60.4844 40.0469 60.2656 39.2344 59.625 38.8594L59.5156 38.7969C59.6875 38.3281 59.8281 37.8438 59.9063 37.3438H60.0313C60.7656 37.3438 61.3594 36.75 61.3594 36.0156C61.3594 35.2812 60.7656 34.6875 60.0313 34.6875H59.9063C59.8281 34.1875 59.6875 33.7031 59.5156 33.2344L59.625 33.1719C60.2656 32.7969 60.4844 31.9844 60.1094 31.3438C59.7344 30.7031 58.9219 30.4844 58.2813 30.8594L58.1875 30.9219C57.8594 30.5312 57.5156 30.1719 57.125 29.8594L57.1875 29.7656C57.5625 29.125 57.3438 28.3125 56.7031 27.9375C56.0625 27.5625 55.25 27.7812 54.875 28.4219L54.8125 28.5313C54.3438 28.3594 53.8594 28.2188 53.3594 28.1406V28.0156C53.3594 27.2812 52.7656 26.6875 52.0313 26.6875C51.2969 26.6875 50.7031 27.2812 50.7031 28.0156V28.1406C50.2031 28.2188 49.7188 28.3594 49.25 28.5313L49.1875 28.4219C48.9531 28.0156 48.5156 27.75 48.0313 27.75C47.5625 27.75 47.1094 28 46.875 28.4219C46.6406 28.8437 46.6406 29.3437 46.875 29.75L46.9375 29.8437C46.5469 30.1719 46.1875 30.5156 45.875 30.9062L45.7813 30.8437C45.1406 30.4687 44.3281 30.6875 43.9531 31.3281C43.5781 31.9687 43.7969 32.7812 44.4375 33.1562L44.5469 33.2188C44.375 33.6875 44.2344 34.1719 44.1563 34.6719H44.0313C43.2969 34.6719 42.7031 35.2656 42.7031 36C42.7031 36.7344 43.2969 37.3281 44.0313 37.3281H44.1563C44.2344 37.8281 44.375 38.3125 44.5469 38.7812L44.4375 38.8438C43.9219 39.1406 43.6563 39.7656 43.8125 40.3438C43.9688 40.9219 44.5 41.3281 45.1094 41.3281C45.3438 41.3281 45.5781 41.2656 45.7813 41.1562L45.8438 41.1094ZM54.6719 50.125L52.9531 48.4062C52.7031 48.1562 52.3594 48.0156 52.0156 48.0156C51.6719 48.0156 51.3281 48.1562 51.0781 48.4062L49.3594 50.125V43.5469C51.0781 44.1719 52.9688 44.1719 54.6875 43.5469L54.6719 50.125ZM52 30.6719C54.9531 30.6719 57.3281 33.0625 57.3281 36C57.3281 38.9375 54.9375 41.3281 52 41.3281C49.0469 41.3281 46.6719 38.9375 46.6719 36C46.6719 33.0625 49.0625 30.6719 52 30.6719Z" fill="#E94F4E"/>
<path d="M46.6719 61.6563C46.2344 61.6563 45.8125 61.4844 45.5156 61.1719C45.2031 60.8594 45.0313 60.4531 45.0313 60C45.0313 59.5625 45.2031 59.1406 45.5156 58.8438C45.8281 58.5469 46.2344 58.3594 46.6719 58.3594H65.3438C66.25 58.3594 66.9844 59.0937 66.9844 60C66.9844 60.9062 66.25 61.6406 65.3438 61.6406H46.6719V61.6563Z" fill="#242D3D"/>
<path d="M65.3438 58.6719H46.6719C46.3125 58.6719 45.9844 58.8125 45.7344 59.0625C45.4844 59.3125 45.3438 59.6562 45.3438 60C45.3438 60.3594 45.4844 60.6875 45.7344 60.9375C45.9844 61.1875 46.3281 61.3281 46.6719 61.3281H65.3438C66.0781 61.3281 66.6719 60.7344 66.6719 60C66.6719 59.2656 66.0781 58.6719 65.3438 58.6719Z" fill="#242D3D"/>
<path d="M46.6719 66.9844C45.7656 66.9844 45.0313 66.25 45.0313 65.3437C45.0313 64.4375 45.7656 63.7031 46.6719 63.7031H65.3438C66.25 63.7031 66.9844 64.4375 66.9844 65.3437C66.9844 66.25 66.25 66.9844 65.3438 66.9844H46.6719Z" fill="#242D3D"/>
<path d="M65.3438 64H46.6719C45.9375 64 45.3438 64.5937 45.3438 65.3281C45.3438 66.0625 45.9375 66.6562 46.6719 66.6562H65.3438C66.0781 66.6562 66.6719 66.0625 66.6719 65.3281C66.6719 64.5937 66.0781 64 65.3438 64Z" fill="#242D3D"/>
<path d="M46.6719 72.3125C45.7656 72.3125 45.0313 71.5781 45.0313 70.6719C45.0313 69.7656 45.7656 69.0312 46.6719 69.0312H65.3438C66.25 69.0312 66.9844 69.7656 66.9844 70.6719C66.9844 71.5781 66.25 72.3125 65.3438 72.3125H46.6719Z" fill="#242D3D"/>
<path d="M65.3438 69.3438H46.6719C45.9375 69.3438 45.3438 69.9375 45.3438 70.6719C45.3438 71.4062 45.9375 72 46.6719 72H65.3438C66.0781 72 66.6719 71.4062 66.6719 70.6719C66.6719 69.9375 66.0781 69.3438 65.3438 69.3438Z" fill="#242D3D"/>
<path d="M33.3281 29.6562C32.8906 29.6562 32.4844 29.4844 32.1719 29.1875L32.1562 29.1719C32.0156 29.0156 31.9062 28.8437 31.8125 28.6406C31.6406 28.25 31.6406 27.7812 31.8125 27.375C31.8906 27.1875 32 27 32.1562 26.8438L32.1719 26.8281C32.4844 26.5312 32.9062 26.375 33.3281 26.375C33.7656 26.375 34.1719 26.5312 34.4844 26.8281L34.5 26.8438C34.6562 27 34.7656 27.1875 34.8437 27.3906C35.0156 27.7812 35.0156 28.25 34.8437 28.6406C34.7656 28.8281 34.6562 29.0156 34.5156 29.1719L34.5 29.1875C34.1875 29.4844 33.7656 29.6406 33.3281 29.6562Z" fill="#242D3D"/>
<path d="M34.2813 27.0625C33.75 26.5625 32.9219 26.5625 32.3907 27.0625C32.2657 27.1875 32.1719 27.3438 32.1094 27.5C31.9688 27.8281 31.9688 28.1875 32.1094 28.5156C32.1719 28.6719 32.2657 28.8281 32.3907 28.9531C32.6407 29.2031 32.9844 29.3438 33.3438 29.3438C33.7032 29.3438 34.0313 29.2031 34.2969 28.9531C34.4219 28.8281 34.5157 28.6719 34.5782 28.5156C34.7188 28.1875 34.7188 27.8281 34.5782 27.5C34.5 27.3281 34.4063 27.1875 34.2813 27.0625Z" fill="#242D3D"/>
</g>
<defs>
<clipPath id="clip0">
<rect width="80" height="80" fill="white"/>
</clipPath>
</defs>
</svg>
