<svg width="80" height="80" viewBox="0 0 80 80" fill="none" xmlns="http://www.w3.org/2000/svg">
<path d="M57.8437 74.8594C57.5937 74.8594 57.3437 74.8125 57.1094 74.7031L57.0781 74.6875C51.6562 72.3594 45.9062 71.1875 40.0156 71.1875H40C34.0937 71.1875 28.3437 72.375 22.9218 74.7031C22.6875 74.7969 22.4375 74.8594 22.1875 74.8594C21.4375 74.8594 20.7656 74.4062 20.4687 73.7187C20.2656 73.2656 20.2656 72.75 20.4531 72.2813C20.6406 71.8125 21 71.4531 21.4531 71.25C25.0312 69.7031 28.7968 68.625 32.625 68.0156L33.0156 67.9531V57.5938H10.6718L3.71872 64.5469C3.35934 64.9063 2.89059 65.0938 2.39059 65.0938C1.89059 65.0938 1.42184 64.9063 1.06247 64.5469C0.703095 64.1875 0.515594 63.7188 0.515594 63.2188C0.515594 62.7188 0.703095 62.25 1.06247 61.8906L5.35934 57.5938H2.85934C1.53122 57.5938 0.453094 56.5156 0.453094 55.1875V9.20313C0.453094 7.875 1.53122 6.79688 2.85934 6.79688H77.125C78.4531 6.79688 79.5312 7.875 79.5312 9.20313V55.2031C79.5312 56.5312 78.4531 57.6094 77.125 57.6094H47V67.9688L47.3906 68.0312C51.2187 68.6406 54.9687 69.7188 58.5625 71.2656L58.5937 71.2813C59.5469 71.6875 59.9843 72.7969 59.5781 73.75C59.2812 74.4062 58.6094 74.8594 57.8437 74.8594ZM36.75 67.5469L37.25 67.5156C38.1875 67.4531 39.125 67.4375 40 67.4375H40.0156C40.8906 67.4375 41.8125 67.4688 42.75 67.5156L43.25 67.5469V57.5938H36.7656V67.5469H36.75ZM14.4218 53.8438H75.7812V10.5469H4.21872V53.8438H9.10934L18.2968 44.6562L17.9843 44.3281C15.6718 41.8594 14.3906 38.6406 14.3906 35.2656C14.3906 27.9687 20.3281 22.0312 27.625 22.0312C34.9218 22.0312 40.8593 27.9687 40.8593 35.2656C40.8593 42.5625 34.9218 48.5 27.625 48.5C25.5156 48.5 23.5 48.0156 21.625 47.0625L21.3281 46.9063L14.4218 53.8438ZM27.6406 25.7812C22.4062 25.7812 18.1406 30.0469 18.1406 35.2813C18.1406 40.5156 22.4062 44.7813 27.6406 44.7813C32.875 44.7813 37.1406 40.5156 37.1406 35.2813C37.125 30.0469 32.875 25.7812 27.6406 25.7812Z" fill="#242D3D"/>
<path d="M47.375 48.8906C46.3438 48.8906 45.5 48.0469 45.5 47.0156V37.9688C45.5 36.9375 46.3438 36.0938 47.375 36.0938C48.4062 36.0938 49.25 36.9375 49.25 37.9688V47.0156C49.25 48.0469 48.4062 48.8906 47.375 48.8906Z" fill="#242D3D"/>
<path d="M54.7188 48.8906C53.6875 48.8906 52.8438 48.0469 52.8438 47.0156V22.3438C52.8438 21.3125 53.6875 20.4688 54.7188 20.4688C55.75 20.4688 56.5938 21.3125 56.5938 22.3438V47.0156C56.5938 48.0469 55.75 48.8906 54.7188 48.8906Z" fill="#E94F4E"/>
<path d="M62.1875 48.8906C61.1563 48.8906 60.3125 48.0469 60.3125 47.0156V28.5938C60.3125 27.5625 61.1563 26.7188 62.1875 26.7188C63.2187 26.7188 64.0625 27.5625 64.0625 28.5938V47.0156C64.0625 48.0469 63.2187 48.8906 62.1875 48.8906Z" fill="#242D3D"/>
<path d="M69.6562 48.8906C68.625 48.8906 67.7812 48.0469 67.7812 47.0156V34.8438C67.7812 33.8125 68.625 32.9688 69.6562 32.9688C70.6875 32.9688 71.5312 33.8125 71.5312 34.8438V47.0156C71.5312 48.0469 70.6875 48.8906 69.6562 48.8906Z" fill="#242D3D"/>
</svg>
