<svg width="80" height="80" viewBox="0 0 80 80" fill="none" xmlns="http://www.w3.org/2000/svg">
<path d="M30.7812 77.2656C29.75 77.2656 28.9062 76.4219 28.9062 75.3906V66.8906L18.5 58.1563C17.1406 57.0156 16.3437 55.4219 16.2656 53.6875C16.1875 51.9531 16.8438 50.3125 18.1094 49.0469C19.375 47.7812 21.1875 47.0469 23.0781 47.0469C24.75 47.0469 26.3437 47.6094 27.5625 48.6406L28.9219 49.7813V35.0156H16.4688C7.64063 35.0156 0.46875 27.8438 0.46875 19.0313C0.46875 10.2188 7.64063 3.04688 16.4531 3.04688H63.5469C72.3594 3.04688 79.5312 10.2188 79.5312 19.0313C79.5312 27.8438 72.3594 35.0156 63.5469 35.0156H42.0312V40.9219L55.0313 42.5469C58.3125 42.9531 60.7812 45.75 60.7812 49.0625V75.4063C60.7812 76.4375 59.9375 77.2813 58.9062 77.2813H30.7812V77.2656ZM32.6562 73.5156H57.0312V67.8906H32.6562V73.5156ZM23.0625 50.7969C22.1719 50.7969 21.3281 51.125 20.75 51.7031C20.25 52.2031 19.9844 52.8594 20.0156 53.5313C20.0469 54.2031 20.3594 54.8281 20.9063 55.2812L31.4687 64.1406H57.0312V49.0469C57.0312 47.625 55.9688 46.4375 54.5625 46.25L39.9219 44.4219C38.9844 44.3125 38.2812 43.5 38.2812 42.5625V23.8125C38.2812 22.2656 37.0156 21 35.4688 21C33.9219 21 32.6562 22.2656 32.6562 23.8125V53.7813C32.6562 54.9375 31.6719 55.6563 30.7656 55.6563C30.3281 55.6563 29.9219 55.5 29.5781 55.2187L25.1406 51.5C24.5781 51.0469 23.8438 50.7969 23.0625 50.7969ZM35.4688 17.2656C39.0938 17.2656 42.0312 20.2031 42.0312 23.8281V31.2656H63.5625C70.3125 31.2656 75.7969 25.7813 75.7969 19.0313C75.7969 12.2813 70.3125 6.79688 63.5625 6.79688H16.4531C9.70313 6.79688 4.21875 12.2813 4.21875 19.0313C4.21875 25.7813 9.70313 31.2656 16.4531 31.2656H28.9062V23.8281C28.9062 20.2031 31.8437 17.2656 35.4688 17.2656Z" fill="#242D3D"/>
<path d="M54.0468 25.5469C53.5468 25.5469 53.0781 25.3594 52.7187 25L48.0312 20.3125C47.6718 19.9531 47.4843 19.4844 47.4843 18.9844C47.4843 18.4844 47.6718 18.0156 48.0312 17.6562C48.3906 17.2969 48.8593 17.1094 49.3593 17.1094C49.8593 17.1094 50.3281 17.2969 50.6875 17.6562L54.0468 21.0156L62.0937 12.9688C62.4531 12.6094 62.9218 12.4219 63.4218 12.4219C63.9218 12.4219 64.3906 12.6094 64.75 12.9688C65.1093 13.3281 65.2968 13.7969 65.2968 14.2969C65.2968 14.7969 65.1093 15.2656 64.75 15.625L55.375 25C55.0156 25.3594 54.5468 25.5469 54.0468 25.5469Z" fill="#E94F4E"/>
</svg>
