<svg width="80" height="80" viewBox="0 0 80 80" fill="none" xmlns="http://www.w3.org/2000/svg">
<path d="M16.2031 72.8125C15.3437 72.7969 14.6406 72.0937 14.6563 71.2344L14.6719 70.2969C12.5781 70.125 10.9375 68.375 10.9375 66.25C10.9375 65.3906 11.6406 64.6875 12.5 64.6875C12.6563 64.6875 12.7969 64.7031 12.9375 64.75C11.7344 64.0469 10.9375 62.75 10.9375 61.2656C10.9375 60.1875 11.3594 59.1563 12.125 58.3906C12.8125 57.6875 13.7188 57.2813 14.6875 57.2031L14.7031 56.3906C14.7188 55.5469 15.4219 54.8438 16.2656 54.8438H16.2813C16.7031 54.8438 17.0938 55.0156 17.375 55.3125C17.6563 55.6094 17.8281 56 17.8125 56.4219L17.7969 57.1875C19.9063 57.3438 21.5625 59.1094 21.5625 61.2344C21.5625 62.0937 20.8594 62.7969 20 62.7969C19.8438 62.7969 19.7031 62.7813 19.5625 62.7344C20.7656 63.4375 21.5625 64.75 21.5625 66.2344C21.5625 68.375 19.8906 70.1406 17.7969 70.2812L17.7813 71.25C17.7656 72.0938 17.0625 72.7969 16.2188 72.7969H16.2031V72.8125ZM13.4375 65C13.8125 65.2812 14.0625 65.7344 14.0625 66.25C14.0625 66.7656 14.4844 67.1875 15 67.1875H17.5C18.0156 67.1875 18.4375 66.7656 18.4375 66.25C18.4375 65.7344 18.0156 65.3125 17.5 65.3125H15C14.4531 65.3125 13.9219 65.2031 13.4375 65ZM15 60.3125C14.4844 60.3125 14.0625 60.7344 14.0625 61.25C14.0625 61.7656 14.4844 62.1875 15 62.1875H17.5C18.0469 62.1875 18.5781 62.2969 19.0625 62.5C18.6875 62.2188 18.4375 61.7656 18.4375 61.25C18.4375 60.7344 18.0156 60.3125 17.5 60.3125H15Z" fill="#E94F4E"/>
<path d="M15 60H17.5C18.1875 60 18.75 60.5625 18.75 61.25C18.75 61.9375 19.3125 62.5 20 62.5C20.6875 62.5 21.25 61.9375 21.25 61.25C21.25 59.1719 19.5782 57.5 17.5 57.5H17.4844L17.5 56.4375C17.5157 55.75 16.9532 55.1875 16.2657 55.1719C15.5782 55.1563 15.0157 55.7188 15 56.4063L14.9844 57.5C12.9063 57.5 11.2344 59.1875 11.2344 61.25C11.2344 63.3281 12.9219 65 14.9844 65H17.4844C18.1719 65 18.7344 65.5625 18.7344 66.25C18.7344 66.9375 18.1719 67.5 17.4844 67.5H15C14.3125 67.5 13.75 66.9375 13.75 66.25C13.75 65.5625 13.1875 65 12.5 65C11.8125 65 11.25 65.5625 11.25 66.25C11.25 68.3125 12.9219 69.9844 14.9844 70L14.9688 71.2344C14.9532 71.9219 15.5157 72.4844 16.2032 72.5H16.2188C16.9063 72.5 17.4532 71.9531 17.4688 71.2656L17.4844 70H17.5C19.5782 70 21.25 68.3281 21.25 66.25C21.25 64.1719 19.5782 62.5 17.5 62.5H15C14.3125 62.5 13.75 61.9375 13.75 61.25C13.75 60.5625 14.3125 60 15 60Z" fill="#E94F4E"/>
<path d="M37.5 19.0625C37.0781 19.0625 36.6875 18.9062 36.3906 18.6093C36.0937 18.3125 35.9375 17.9218 35.9375 17.5V7.49997C35.9375 7.18747 36.0312 6.89059 36.2031 6.62497C36.5 6.18747 36.9844 5.92184 37.5 5.92184C37.8125 5.92184 38.1094 6.01559 38.3594 6.18747L45.9531 11.25V11.2656C46.0938 11.375 46.2031 11.5 46.2969 11.6406C46.5313 11.9843 46.6094 12.4062 46.5313 12.8125C46.4531 13.2187 46.2188 13.5781 45.8594 13.8125L38.3594 18.8125C38.1094 18.9687 37.8125 19.0625 37.5 19.0625ZM39.0625 14.5781L42.1875 12.5L39.0625 10.4218V14.5781Z" fill="#E94F4E"/>
<path d="M45.6875 11.4531L38.1875 6.45313C37.6094 6.07813 36.8438 6.21875 36.4531 6.79688C36.3125 7 36.25 7.25 36.25 7.5V17.5C36.25 18.1875 36.8125 18.75 37.5 18.75C37.75 18.75 37.9844 18.6719 38.1875 18.5469L45.6875 13.5469C46.2656 13.1563 46.4219 12.3906 46.0313 11.8125C45.9531 11.6719 45.8281 11.5469 45.6875 11.4531ZM38.75 15.1563V9.82813L42.75 12.5L38.75 15.1563Z" fill="#E94F4E"/>
<path d="M16.25 77.8281C11.0781 77.8281 6.32814 75 3.87502 70.4531C0.218766 63.7187 2.65627 55.2969 9.29689 51.5312C6.48439 44.0625 6.48439 35.8594 9.29689 28.3906C12.125 20.8906 17.5938 14.7188 24.6875 11V3.75C24.6875 2.89062 25.3906 2.1875 26.25 2.1875H53.75C54.6094 2.1875 55.3125 2.89062 55.3125 3.75V11C63 15.0469 68.6719 21.8437 71.2969 30.1406C73.8906 38.3281 73.1875 47.0312 69.3594 54.6875H76.25C77.1094 54.6875 77.8125 55.3906 77.8125 56.25V76.25C77.8125 77.1094 77.1094 77.8125 76.25 77.8125H48.75C47.8906 77.8125 47.1875 77.1094 47.1875 76.25V72C44.8281 72.5312 42.4219 72.7969 40 72.8125H39.9688C36.0313 72.8125 32.1563 72.1094 28.4688 70.7031C27.1719 73 25.25 74.875 22.9219 76.1406C20.875 77.25 18.5625 77.8281 16.25 77.8281ZM72.8906 74.6875L69.9688 71.1875L67.0625 74.6875H72.8906ZM63.2344 74.6875L57.4531 66.4687L51.7344 74.6875H63.2344ZM16.25 52.8125C10.2188 52.8125 5.31252 57.7188 5.31252 63.75C5.31252 69.7812 10.2188 74.6875 16.25 74.6875C22.2656 74.6719 27.1719 69.7656 27.1875 63.75C27.1875 57.7188 22.2813 52.8125 16.25 52.8125ZM57.4844 62.1875C57.9844 62.1875 58.4531 62.4375 58.7188 62.8594L65.1875 72.0469L68.7344 67.75C68.7969 67.6719 68.8594 67.6094 68.9375 67.5469C69.2188 67.3125 69.5781 67.1875 69.9375 67.1875C70.4063 67.1875 70.8438 67.3906 71.1406 67.75L74.6719 71.9688V57.8125H50.3125V71.2656L56.1719 62.8594C56.4531 62.4375 56.9375 62.1875 57.4375 62.1875C57.4375 62.1875 57.4688 62.1875 57.4844 62.1875ZM29.7031 67.8438C33 69.0781 36.4375 69.6875 39.9531 69.6875C42.3906 69.6875 44.8281 69.3906 47.1875 68.7813V56.25C47.1875 55.3906 47.8906 54.6875 48.75 54.6875H65.7969C73.7813 40.6875 69.0781 22.8438 55.3125 14.5781V21.25C55.3125 22.1094 54.6094 22.8125 53.75 22.8125H26.25C25.3906 22.8125 24.6875 22.1094 24.6875 21.25V14.5781C18.8125 18.1094 14.3281 23.5937 12.0313 30.0625C9.70314 36.6094 9.75002 43.7969 12.1719 50.2969C13.5 49.8906 14.875 49.6875 16.2656 49.6875C17.4219 49.6875 18.5781 49.8281 19.7031 50.125V47.8125C15.5469 47.6406 12.2031 44.2031 12.2031 40C12.2031 35.6875 15.7031 32.1875 20.0156 32.1875H25.8906L40.5625 24.8594C40.7813 24.75 41.0156 24.6875 41.2656 24.6875H46.2656C47.125 24.6875 47.8281 25.3906 47.8281 26.25V34.9375C49.5938 35.4688 50.9531 36.8906 51.4219 38.6875C51.7656 40.0625 51.5625 41.4844 50.8438 42.7031C50.1563 43.8437 49.0938 44.6719 47.8281 45.0625V53.75C47.8281 54.6094 47.125 55.3125 46.2656 55.3125H41.2656C41.0156 55.3125 40.7813 55.25 40.5625 55.1406L27.8125 48.7813V55.7812C29.4531 58.125 30.3125 60.8906 30.3125 63.75C30.3125 65.1406 30.1094 66.5156 29.7031 67.8438ZM22.8125 51.3281C23.4688 51.6719 24.0938 52.0781 24.6875 52.5156V47.8125H22.8125V51.3281ZM44.6875 52.1875V27.8125H42.8125V52.1875H44.6875ZM39.6875 51.2187V28.7812L27.8125 34.7187V45.2812L39.6875 51.2187ZM20 35.3125C17.4219 35.3125 15.3125 37.4219 15.3125 40C15.3125 42.5781 17.4219 44.6875 20 44.6875H24.6875V35.3125H20ZM47.8125 41.5312C47.9375 41.4062 48.0469 41.2656 48.1406 41.1094C48.4375 40.6094 48.5156 40.0156 48.3594 39.4531C48.2656 39.0781 48.0781 38.75 47.8125 38.4844V41.5312ZM52.1875 19.6875V5.3125H27.8125V19.6875H52.1875Z" fill="#242D3D"/>
<path d="M76.25 55H68.8438C77.125 39.0781 70.9219 19.4687 55 11.1875V3.75C55 3.0625 54.4375 2.5 53.75 2.5H26.25C25.5625 2.5 25 3.0625 25 3.75V11.1875C10.3125 18.7969 3.71878 36.25 9.68753 51.6719C3.01566 55.2969 0.531281 63.6406 4.14066 70.3125C7.75003 76.9844 16.0938 79.4688 22.7813 75.8594C25.125 74.5937 27.0625 72.6562 28.3282 70.3125C32.0469 71.7656 36.0157 72.5 40 72.5C42.5313 72.5 45.0469 72.2031 47.5 71.6094V76.25C47.5 76.9375 48.0625 77.5 48.75 77.5H76.25C76.9375 77.5 77.5 76.9375 77.5 76.25V56.25C77.5 55.5625 76.9375 55 76.25 55ZM27.5 5H52.5V20H27.5V5ZM16.25 75C10.0313 75 5.00003 69.9687 5.00003 63.75C5.00003 57.5313 10.0313 52.5 16.25 52.5C22.4688 52.5 27.5 57.5313 27.5 63.75C27.4844 69.9531 22.4532 74.9844 16.25 75ZM20 45C17.2344 45 15 42.7656 15 40C15 37.2344 17.2344 35 20 35H25V45H20ZM25 47.5V53.1563C24.2344 52.5156 23.3907 51.9688 22.5 51.5156V47.5H25ZM47.5 56.25V69.0312C41.4844 70.6094 35.125 70.2656 29.3125 68.0312C29.7657 66.6562 30 65.2031 30 63.75C30 60.9219 29.125 58.1719 27.5 55.875V48.2812L40.6875 54.875C40.8594 54.9688 41.0469 55.0156 41.25 55.0156H46.25C46.9375 55.0156 47.5 54.4531 47.5 53.7656V44.8438C50.1719 44.1719 51.7813 41.4531 51.0938 38.7969C50.6407 37.0313 49.2657 35.6563 47.5 35.2031V26.25C47.5 25.5625 46.9375 25 46.25 25H41.25C41.0469 25 40.8594 25.0469 40.6875 25.1406L25.9532 32.5H20C15.8594 32.5 12.5 35.8594 12.5 40C12.5 44.1406 15.8594 47.5 20 47.5V50.5312C18.7813 50.1719 17.5157 50 16.25 50C14.7969 50 13.3594 50.2344 11.9688 50.6875C6.71878 36.9219 12.2344 21.3906 25 14.0313V21.25C25 21.9375 25.5625 22.5 26.25 22.5H53.75C54.4375 22.5 55 21.9375 55 21.25V14.0313C69.3438 22.3125 74.2657 40.6406 65.9844 54.9844C65.9844 55 65.9688 55 65.9688 55.0156H48.75C48.0625 55 47.5 55.5625 47.5 56.25ZM27.5 45.4688V34.5312L40 28.2812V51.7188L27.5 45.4688ZM42.5 52.5V27.5H45V52.5H42.5ZM47.5 42.1562V37.8281C48.6875 38.5156 49.0938 40.0469 48.4063 41.25C48.1875 41.625 47.875 41.9375 47.5 42.1562ZM51.1407 75L57.4532 65.9219L63.8438 75H51.1407ZM66.9063 75L66.6875 74.6719L69.9688 70.7031L73.5625 75H66.9063ZM75 72.8281L70.9063 67.9531C70.4688 67.4219 69.6719 67.3437 69.1407 67.7812C69.0782 67.8281 69.0313 67.8906 68.9688 67.9531L65.1563 72.5625L58.4375 63.0312C58.2188 62.6875 57.8282 62.4844 57.4063 62.5C57 62.5 56.625 62.7031 56.3907 63.0312L49.9688 72.25V57.5H74.9688V72.8281H75Z" fill="#242D3D"/>
<path d="M66.25 66.5625C64.0156 66.5625 62.1875 64.7344 62.1875 62.5C62.1875 60.2656 64.0156 58.4375 66.25 58.4375C68.4844 58.4375 70.3125 60.2656 70.3125 62.5C70.3125 64.7344 68.4844 66.5625 66.25 66.5625ZM66.25 61.5625C65.7344 61.5625 65.3125 61.9844 65.3125 62.5C65.3125 63.0156 65.7344 63.4375 66.25 63.4375C66.7656 63.4375 67.1875 63.0156 67.1875 62.5C67.1875 61.9844 66.7656 61.5625 66.25 61.5625Z" fill="#E94F4E"/>
<path d="M66.25 66.25C68.3281 66.25 70 64.5781 70 62.5C70 60.4219 68.3281 58.75 66.25 58.75C64.1719 58.75 62.5 60.4219 62.5 62.5C62.5 64.5781 64.1719 66.25 66.25 66.25ZM66.25 61.25C66.9375 61.25 67.5 61.8125 67.5 62.5C67.5 63.1875 66.9375 63.75 66.25 63.75C65.5625 63.75 65 63.1875 65 62.5C65 61.8125 65.5625 61.25 66.25 61.25Z" fill="#E94F4E"/>
<path d="M60.7344 53.4375C60.3437 53.4375 59.9687 53.2969 59.6719 53.0312C59.3594 52.75 59.1875 52.3594 59.1719 51.9531C59.1562 51.5469 59.2969 51.1406 59.5781 50.8438C62.0781 47.7969 63.4531 43.9531 63.4375 40.0156C63.4531 36.0625 62.0781 32.2188 59.5781 29.1719C59.0469 28.5 59.1406 27.5469 59.7969 27C60.0781 26.7656 60.4375 26.625 60.7969 26.625C61.2656 26.625 61.6875 26.8281 61.9844 27.1875C64.9375 30.7969 66.5469 35.3438 66.5469 40C66.5469 44.6563 64.9219 49.2031 61.9844 52.8125C61.9531 52.8594 61.9062 52.9062 61.875 52.9375C61.5937 53.2656 61.1719 53.4375 60.7344 53.4375Z" fill="#242D3D"/>
<path d="M63.75 40C63.7656 44.0312 62.375 47.9219 59.8125 51.0312C59.3438 51.5312 59.375 52.3281 59.8906 52.7969C60.3906 53.2656 61.1875 53.2344 61.6563 52.7187C61.6875 52.6875 61.7188 52.6406 61.75 52.6094C67.75 45.2656 67.75 34.7187 61.75 27.375C61.3125 26.8437 60.5156 26.7812 59.9844 27.2187C59.4688 27.6562 59.3906 28.4219 59.8125 28.9531C62.375 32.0781 63.7656 35.9687 63.75 40Z" fill="#242D3D"/>
<path d="M56.3282 50.9219C55.9375 50.9219 55.5469 50.7813 55.2657 50.5C54.9532 50.2188 54.7813 49.8281 54.7657 49.4063C54.75 48.9844 54.8907 48.5938 55.1875 48.2813C57.2969 46.0156 58.4532 43.0781 58.4375 40C58.4375 36.9063 57.2813 33.9688 55.1875 31.7188C54.625 31.0781 54.6563 30.125 55.2657 29.5469C55.5625 29.2656 55.9375 29.1094 56.3438 29.1094C56.7657 29.1094 57.1719 29.2812 57.4688 29.5937C60.1094 32.4375 61.5625 36.1406 61.5625 40.0156C61.5625 43.8906 60.1094 47.5938 57.4688 50.4219C57.1719 50.7344 56.75 50.9219 56.3282 50.9219Z" fill="#242D3D"/>
<path d="M58.75 40C58.75 43.1563 57.5625 46.1875 55.4063 48.5C54.9375 49 54.9688 49.7969 55.4688 50.2656C55.9688 50.7344 56.7656 50.7031 57.2344 50.2031C62.5781 44.4531 62.5781 35.5469 57.2344 29.7969C56.75 29.2969 55.9688 29.2813 55.4688 29.7657C54.9844 30.2344 54.9531 31 55.4063 31.5C57.5625 33.8125 58.75 36.8438 58.75 40Z" fill="#242D3D"/>
<path d="M51.75 48.3594C51.2813 48.3594 50.8282 48.1406 50.5313 47.7812C50.2657 47.4531 50.1407 47.0469 50.1875 46.6406C50.2344 46.2188 50.4375 45.8594 50.7657 45.5937C51.1563 45.2656 51.5313 44.9062 51.8438 44.5156C53.0469 43.0312 53.5938 41.1562 53.3907 39.25C53.1875 37.3437 52.25 35.625 50.7657 34.4219C50.4375 34.1562 50.2344 33.7813 50.1875 33.375C50.1407 32.9531 50.2657 32.5469 50.5313 32.2344C50.8282 31.8594 51.2657 31.6562 51.75 31.6562C52.1094 31.6562 52.4532 31.7812 52.7344 32C53.2969 32.4531 53.8125 32.9687 54.2813 33.5469C57.8438 37.9687 57.1563 44.4687 52.7344 48.0312C52.4532 48.2344 52.1094 48.3594 51.75 48.3594Z" fill="#242D3D"/>
<path d="M51.75 48.0469C52.0313 48.0469 52.3125 47.9531 52.5313 47.7656C56.8281 44.2969 57.4844 38.0156 54.0312 33.7187C53.5938 33.1719 53.0938 32.6719 52.5313 32.2187C52 31.7812 51.2031 31.8594 50.7656 32.4062C50.3281 32.9375 50.4063 33.7344 50.9531 34.1719C54.1719 36.7656 54.6719 41.4844 52.0781 44.7031C51.75 45.125 51.3594 45.5 50.9531 45.8281C50.4219 46.2656 50.3281 47.0469 50.7656 47.5937C51.0156 47.875 51.375 48.0469 51.75 48.0469Z" fill="#242D3D"/>
</svg>
