<svg width="255" height="39" viewBox="0 0 255 39" fill="none" xmlns="http://www.w3.org/2000/svg">
<path d="M16.2 1.59998C22.9 1.69998 25.2 6.09997 24.6 10.4C24 14.3 20.7 17 17.2 18.3C19.3 20.7 22.8 28.4 23.8 30.7H17.2C16.1 28.6 14.2 22.7 10.5 19.3C9.70001 19.3 8.90001 19.3 8.20001 19.3L6.60001 30.6H0.700012L4.80001 1.59998H16.2ZM13.4 14C16 13.8 18.2 12.5 18.5 10.5C18.8 8.39998 18.1 7.39998 15.7 7.09998C14 6.89998 12 6.79997 10 6.79997L9.00001 14.2C10.4 14.1 11.9 14.1 13.4 14Z" fill="white"/>
<path d="M45.6 25.2C44.1 27.9 40.9 30.9 35.5 30.9C30.3 30.9 25.6 26.9 26.5 20.4C27.4 14.2 32.9 10 38 10C44.6 10 47.4 14.6 46.4 22.1H32.1C32.1 24.3 33.9 25.9 36.1 26.1C37.9 26.3 39.8 25.5 41 24.2L45.6 25.2ZM41.4 18.2C41.5 16.4 40.1 14.4 37.6 14.4C35.2 14.4 33.5 16.1 32.8 18.2H41.4Z" fill="white"/>
<path d="M68.4 30.6H62.7L63 28.6C61.2 30.1 59 31.1 56.2 30.9C51.1 30.5 48 25.9 48.7 20.5C49.4 15.1 53.9 10.5 59.1 10.1C59.5 10.1 59.9 10 60.4 10C62.5 10 65.5 10.3 67.5 11.2C68.1 11.1 68.6 11 68.9 11.1C69.7 11.2 70.5 11.4 71.1 11.6L68.4 30.6ZM58.6 25.8C61.4 25.8 63.6 23.7 64.1 20.6V20.5C64.6 17.3 62.8 15.2 60.1 15.2C57.3 15.2 55 17.3 54.5 20.5C54.1 23.7 55.8 25.8 58.6 25.8Z" fill="white"/>
<path d="M71.8 22.4C71.9 21.8 71.9 21.1999 72 20.5999L74.7 0.699951H80.4L77.7 20.4C77.6 21.5 77.6 22.3999 77.8 23.0999C78 24.8999 80 25.1 80.9 25.2C81.4 25.9 79.7 29.8999 79 30.5999C73.2 30.4999 71.3 27.4 71.8 22.4Z" fill="white"/>
<path d="M112.3 6.79997C109.9 6.79997 108.2 8.19997 108 9.79997C107.5 13.1 121.5 13.6 120.3 21.9C120.3 22.2 120.2 22.5 120.1 22.7C119.1 26.9 114.1 30.8 108.7 30.8C104.9 30.8 100.7 28.2 98.7 25.9L103.1 22.4C104.2 23.6 106.7 24.9 109.3 24.9C111.9 24.9 113.7 23.9 114 22C114.6 17.8 101.1 17.2 102.1 9.79997C102.7 5.49997 107.2 1.09998 112.4 1.09998C115.7 1.09998 119.9 2.69997 121.5 5.29997L117 8.39997C115.7 6.99997 114.4 6.89997 112.3 6.79997Z" fill="white"/>
<path d="M130.2 12C131.8 10.8 133.6 10 135.4 10C135.6 10 135.9 10 136.2 10.1C139.5 10.5 142.8 13.1 142.9 16.9C142.9 17.6 142.9 18.2 142.8 19L141.1 30.7H135.4L137 19.2C137.4 16.8 136.2 15 133.8 15C131.5 15 129.5 16.8 129.1 19.2L127.5 30.7H121.8L126 1H131.7L130.2 12Z" fill="white"/>
<path d="M156.9 10C162.7 10 166.8 15 166.1 20.5C165.3 26 159.8 31 154 31C148.2 31 144 26 144.8 20.5C145.5 15 151.1 10 156.9 10ZM154.6 25.7C157.4 25.7 159.8 23.5 160.2 20.5C160.6 17.5 158.9 15.3 156 15.3C153.2 15.3 150.8 17.5 150.4 20.5C150 23.5 151.9 25.7 154.6 25.7Z" fill="white"/>
<path d="M189.2 20.7C188.2 27.5 183 31 177.6 31C176 31 174.1 30.7 172.5 30.1L171.3 38.9H165.6L169.1 13.9C169.7 13.3 170.5 12.8 171.4 12.3C171.6 11.9 171.8 12.6 172.3 12.4C174.1 11.1 176.7 10 179.9 10C188.5 10.1 189.6 17.4 189.2 20.7ZM177.8 25.8C180.6 25.8 182.9 23.7 183.4 20.4C183.9 17.2 182.2 15.1 179.3 15.1C176.6 15.1 174.3 17.1 173.8 20.2L173.7 20.6C173.3 23.9 175.1 25.8 177.8 25.8Z" fill="white"/>
<path d="M212.5 20.7C211.5 27.5 206.3 31 200.9 31C199.3 31 197.4 30.7 195.8 30.1L194.6 38.9H188.9L192.4 13.9C193 13.3 193.8 12.8 194.7 12.3C194.9 11.9 195.1 12.6 195.6 12.4C197.4 11.1 200 10 203.2 10C211.8 10.1 213 17.4 212.5 20.7ZM201.1 25.8C203.9 25.8 206.2 23.7 206.7 20.4C207.2 17.2 205.5 15.1 202.6 15.1C199.9 15.1 197.6 17.1 197.1 20.2L197 20.6C196.6 23.9 198.5 25.8 201.1 25.8Z" fill="white"/>
<path d="M234 25.1999C232.4 27.8999 229.3 30.8999 223.9 30.8999C218.7 30.8999 214 26.8999 214.9 20.3999C215.8 14.1999 221.3 9.8999 226.5 9.8999C233.1 9.8999 235.9 14.4999 234.9 21.9999H220.6C220.6 24.1999 222.4 25.7999 224.6 25.9999C226.4 26.1999 228.3 25.3999 229.5 24.0999L234 25.1999ZM229.7 18.1999C229.8 16.3999 228.4 14.3999 225.9 14.3999C223.5 14.3999 221.8 16.0999 221.1 18.1999H229.7Z" fill="white"/>
<path d="M244.6 12.7C245.5 11.5 248 10.1 250.4 10C251 10 251.6 10 252.1 10.1C253.4 10.3 254.2 10.7 254.6 10.7L252.4 15.8C252 15.8 251.7 15.7 251.2 15.7C250.2 15.5 249.1 15.3 247.8 15.6C244.9 16 243.9 18.6 243.6 20.2L242.1 30.7H236.4L239.3 10.4H245L244.6 12.7Z" fill="white"/>
<path d="M96.7 15.1L96.1 19.4H85.8L86.4 15.1H96.7Z" fill="white"/>
</svg>
